<svg xmlns="http://www.w3.org/2000/svg" viewBox="0 0 120 120" height="120" width="120"> 
  <svg data-root-id="9377751150747" width="100%" height="100" xmlns="http://www.w3.org/2000/svg" y="0" x="0"  fontUrl="http://fonts.gstatic.com/s/raleway/v28/1Ptxg8zYS_SKggPN4iEgvnHyvveLxVsEpYCPNLA3JC9c.ttf" zoom="1" editorType="buyer" data-layer-role="brandName">
    <path class="st2" d="M33.04,53.07v26.88c-0.4-0.01-0.81-0.02-1.21-0.05c-5.68-0.34-11.57-2.1-17.54-5.76V53.07H33.04z" name="Layer %{number}" zoom="1" data-layer-id="0564319909332" style="fill: rgb(0, 188, 212);"></path>
    <path class="st2" d="M59.67,17.59v53.58c-0.4,0.27-0.8,0.53-1.21,0.79c-5.38,3.44-11.29,6.13-17.54,7.33v-61.7H59.67z" name="Layer %{number}" zoom="1" data-layer-id="3249013809332" style="fill: rgb(0, 188, 212);"></path>
    <path class="st2" d="M86.58,0v37.83l-3.01,0.67l-3.95,0.88l6.66,4.75c-0.27,0.39-0.59,0.83-0.92,1.3  c-3.26,4.53-9.41,12.38-17.54,19.45V0H86.58z" name="Layer %{number}" zoom="1" data-layer-id="3165965609332" style="fill: rgb(0, 188, 212);"></path>
    <path class="st3" d="M115.86,31.28c0,0-14.21,22.07-18.98,27.77c-3.12,3.74-6.57,7.49-10.3,11.05  c-5.66,5.41-11.96,10.39-18.75,14.22c-9.92,5.58-20.9,8.71-32.46,7.12c-10.88-1.5-20.1-7.39-27.36-15.49  C4.91,72.48,2.74,68.9,0,64.77c4.77,5.77,9.55,10.08,14.28,13.17c6.38,4.18,12.69,6.16,18.75,6.52c2.69,0.16,5.32,0.01,7.89-0.4  c6.7-1.07,13.02-3.88,18.75-7.54c2.87-1.84,5.61-3.89,8.15-6.03c8.72-7.33,15.33-15.74,18.75-20.5c1.68-2.34,2.59-3.8,2.59-3.8  l-2.59-1.86l-6.95-4.97l6.95-1.55L115.86,31.28z" name="Layer %{number}" zoom="1" data-layer-id="1248850709332" style="fill: rgb(224, 242, 241);"></path>
    <path class="st0" d="M86.58,44.34V50c-3.42,4.75-10.03,13.16-18.75,20.5v-5.72c8.12-7.06,14.28-14.92,17.54-19.45  c0.34-0.47,0.65-0.91,0.92-1.3L86.58,44.34z" name="Layer %{number}" zoom="1" data-layer-id="4415353709332" style="fill: rgb(0, 188, 212);"></path>
    <path class="st0" d="M59.67,71.17v5.36c-5.72,3.66-12.05,6.48-18.75,7.54v-5.78c6.26-1.2,12.16-3.89,17.54-7.33  C58.87,71.7,59.27,71.43,59.67,71.17z" name="Layer %{number}" zoom="1" data-layer-id="6337584709332" style="fill: rgb(0, 188, 212);"></path>
    <path class="st0" d="M33.04,79.95v4.52c-6.07-0.37-12.37-2.34-18.75-6.52v-4.8c5.97,3.66,11.86,5.41,17.54,5.76  C32.23,79.92,32.64,79.94,33.04,79.95z" name="Layer %{number}" zoom="1" data-layer-id="3246825509332" style="fill: rgb(0, 188, 212);"></path>
    <path class="st0" d="M113.04,34.27c0,0-33.58,66.38-89.72,53.18c0,0,44.46,22.62,82.53-30.44l8.5,6.35L115.04,31.27z" name="Layer %{number}" zoom="1" data-layer-id="1077080409332" style="fill: rgb(224, 242, 241);"></path>
</svg>